<?xml version="1.0" encoding="utf-8"?>
<!-- Generator: Adobe Illustrator 17.0.0, SVG Export Plug-In . SVG Version: 6.00 Build 0)  -->
<!DOCTYPE svg PUBLIC "-//W3C//DTD SVG 1.1//EN" "http://www.w3.org/Graphics/SVG/1.1/DTD/svg11.dtd">
<svg version="1.1" id="Layer_1" xmlns="http://www.w3.org/2000/svg" xmlns:xlink="http://www.w3.org/1999/xlink" x="0px" y="0px"
	 width="70.5px" height="89.056px" viewBox="0 0 70.5 89.056" enable-background="new 0 0 70.5 89.056" xml:space="preserve">
<g id="Rectangle_1">
	<g>
		<path fill-rule="evenodd" clip-rule="evenodd" fill="#010101" d="M4.829,82.798V8.183h-3.38C0.649,8.183,0,8.83,0,9.628v77.984
			c0,0.798,0.649,1.444,1.449,1.444h57.945c0.8,0,1.449-0.647,1.449-1.444v-3.37H6.277C5.477,84.242,4.829,83.595,4.829,82.798z
			 M43.459-1.444H11.106c-0.8,0-1.449,0.647-1.449,1.444v77.984c0,0.798,0.649,1.444,1.449,1.444h57.945
			c0.8,0,1.449-0.647,1.449-1.444V32.253H43.459V-1.444z M50.219,5.295v20.218H70.5L50.219,5.295z"/>
	</g>
</g>
</svg>
