<?xml version="1.0" encoding="utf-8"?>
<!-- Generator: Adobe Illustrator 17.0.0, SVG Export Plug-In . SVG Version: 6.00 Build 0)  -->
<!DOCTYPE svg PUBLIC "-//W3C//DTD SVG 1.1//EN" "http://www.w3.org/Graphics/SVG/1.1/DTD/svg11.dtd">
<svg version="1.1" id="Layer_1" xmlns="http://www.w3.org/2000/svg" xmlns:xlink="http://www.w3.org/1999/xlink" x="0px" y="0px"
	 width="92.521px" height="92.021px" viewBox="0 0 92.521 92.021" enable-background="new 0 0 92.521 92.021" xml:space="preserve">
<g id="Rounded_Rectangle_1_copy_2">
	<g>
		<path fill-rule="evenodd" clip-rule="evenodd" fill="#010101" d="M33.412,26.271c0-3.952,0.699-7.741,1.979-11.25H21v-7h-7v7H3.5
			c-1.933,0-3.5,1.567-3.5,3.5v10.5h33.535C33.46,28.113,33.412,27.198,33.412,26.271z M34.884,36.021H0v52.5
			c0,1.933,1.567,3.5,3.5,3.5h70c1.933,0,3.5-1.567,3.5-3.5V57.299c-3.369,1.167-6.984,1.81-10.75,1.81
			C51.509,59.109,39.037,49.396,34.884,36.021z M14,85.021H7v-7h7V85.021z M14,71.021H7v-7h7V71.021z M14,57.021H7v-7h7V57.021z
			 M28,85.021h-7v-7h7V85.021z M28,71.021h-7v-7h7V71.021z M28,57.021h-7v-7h7V57.021z M42,85.021h-7v-7h7V85.021z M42,71.021h-7v-7
			h7V71.021z M42,57.021h-7v-7h7V57.021z M56,85.021h-7v-7h7V85.021z M56,71.021h-7v-7h7V71.021z M70,85.021h-7v-7h7V85.021z
			 M70,71.021h-7v-7h7V71.021z M66.25,0C51.741,0,39.979,11.762,39.979,26.271c0,14.509,11.762,26.271,26.271,26.271
			s26.271-11.762,26.271-26.271C92.521,11.762,80.759,0,66.25,0z M63.5,41.021L51,28.521l7.5-7.5l4.5,4.5l11.5-11.5l8,8L63.5,41.021
			z"/>
	</g>
</g>
</svg>
